# xmcd
#
# Track frame offsets: 
#        150
#        20190
#        38153
#        57177
#        76953
#        97075
#        112217
#        126568
#        144822
#        164281
#
# Disc length: 2728 seconds
#
# Revision: 1
# Processed by: cddbd v1.5.2PL0 Copyright (c) Steve Scherf et al.
# Submitted via: ExactAudioCopy v0.99pb4
#
DISCID=8b0aa60a
DTITLE=Vicci Martinez - Sleep To Dream
DYEAR=2003
DGENRE=Blues
TTITLE0=Three Simple Words
TTITLE1=Fade Away
TTITLE2=Floating
TTITLE3=Someday
TTITLE4=Disillusion
TTITLE5=Ganar Tu Amor
TTITLE6=Idaho
TTITLE7=Hole In Your Heart
TTITLE8=Nothing Else Matters
TTITLE9=Glorious Site
EXTD=
EXTT0=
EXTT1=
EXTT2=
EXTT3=
EXTT4=
EXTT5=
EXTT6=
EXTT7=
EXTT8=
EXTT9=
PLAYORDER=
